<svg xmlns="http://www.w3.org/2000/svg" width="36" height="36" viewBox="0 0 996.25 622.875">
  <defs>
    <style>
      .cls-1 {
        fill: #a6b4bf;
        fill-rule: evenodd;
      }
    </style>
  </defs>
  <path class="cls-1" d="M723.581,810.267c0-46.281-1.518-84.2.546-121.917,1.324-24.2-6.073-34.734-30.3-42.087-108.878-33.046-178-138.131-165.226-246.87C541.936,285.93,632.848,197.531,744.7,189.27c113.107-8.355,218.14,64.438,244.759,174.882,22.183,92.055.665,178-50.8,256.647C886.169,701.021,815.331,760.617,723.581,810.267Zm-525.415.579c0-45.854-2.22-82.58.708-118.892,2.316-28.714-8.375-38.369-35.215-46.618C65.067,615.032.861,522.9,1.905,419.533c1.01-99.927,68.947-190.84,164.7-220.407,178.963-55.259,341.076,103.346,298.9,294.341C432.84,641.39,331.277,733.446,198.166,810.846Z" transform="translate(-1.906 -187.969)"/>
</svg>
