<?xml version="1.0" encoding="UTF-8" standalone="no"?>
<svg width="56px" height="56px" viewBox="0 0 56 56" version="1.1" xmlns="http://www.w3.org/2000/svg" xmlns:xlink="http://www.w3.org/1999/xlink">
    <!-- Generator: Sketch 48.2 (47327) - http://www.bohemiancoding.com/sketch -->
    <title>Shape 22</title>
    <desc>Created with Sketch.</desc>
    <defs></defs>
    <g id="Page-1" stroke="none" stroke-width="1" fill="none" fill-rule="evenodd">
        <g id="Shape-22" fill="#000000" fill-rule="nonzero">
            <g id="flower-shape" transform="translate(3.000000, 3.000000)">
                <path d="M49.9999975,25 C49.9999975,22.6898217 49.0516758,20.8200156 42.7206514,20.8182399 C41.949918,20.8182399 41.1330116,20.846651 40.2965705,20.8999219 C41.0495451,20.5252504 41.7705538,20.1417004 42.4418377,19.7563747 C47.920438,16.5938632 47.8067815,14.5003196 46.6506814,12.5008878 C45.4945813,10.5014561 43.7400085,9.35435755 38.2560805,12.5168691 C37.5865725,12.9021948 36.892202,13.3372399 36.192504,13.8042475 C36.6577854,13.1028482 37.091101,12.406776 37.4800195,11.7373393 C40.6428678,6.26109809 39.4991989,4.50493643 37.4977783,3.35073514 C35.4981336,2.19830954 33.4008152,2.08111372 30.2379669,7.55913062 C29.8526002,8.22501598 29.4707853,8.94239648 29.0996256,9.69173947 C29.1511262,8.85538746 29.1795404,8.04034377 29.1795404,7.27501953 C29.1795404,0.948220754 27.3077593,0 25.0008867,0 C22.6904624,0 20.8204571,0.94644506 20.8204571,7.27501953 C20.8204571,8.04922225 20.8488713,8.86604162 20.9021478,9.70416933 C20.5292123,8.95127495 20.1456214,8.23034306 19.7584789,7.55913062 C16.5938546,2.08111372 14.4983122,2.19475815 12.4986675,3.35073514 C10.4972469,4.50316074 9.35180206,6.26287378 12.5146504,11.7426664 C12.9000171,12.4085517 13.3333327,13.1028482 13.7968382,13.8006961 C13.0971402,13.3354642 12.4063215,12.9021948 11.7385894,12.5168691 C6.25643727,9.35258186 4.50186445,10.4996804 3.34754024,12.5008878 C2.19144013,14.5003196 2.07778359,16.5956389 7.55815981,19.7599261 C8.22411609,20.1434761 8.94512476,20.5288018 9.69632344,20.8999219 C8.85988235,20.846651 8.04475187,20.8182399 7.27579435,20.8182399 C0.948321743,20.8182399 0,22.6898217 0,25 C0,27.3101783 0.950097626,29.1799844 7.27757023,29.1799844 C8.04830363,29.1799844 8.86165824,29.1497976 9.69809932,29.0965267 C8.94690064,29.4711982 8.22589197,29.8529725 7.55993569,30.2400739 C2.07955948,33.4043611 2.1949919,35.4996804 3.34931612,37.4991122 C4.50541622,39.5003196 6.2635408,40.6456424 11.7456929,37.4831309 C12.4098733,37.0978052 13.0971402,36.6680872 13.7915106,36.2064067 C13.3297809,36.9042546 12.8982412,37.5878969 12.5146504,38.2537822 C9.35180206,43.7353505 10.4972469,45.4915122 12.4986675,46.6492649 C14.5000881,47.8016905 16.5974064,47.9171106 19.7638065,42.4355423 C20.1491732,41.7661055 20.532764,41.0451737 20.9056995,40.2922793 C20.852423,41.1339584 20.8240089,41.9525534 20.8240089,42.7232048 C20.8240089,49.0500036 22.69579,50 25.0044385,50 C27.3148628,50 29.184868,49.0535549 29.184868,42.7232048 C29.184868,41.9507778 29.1564539,41.1321827 29.1049533,40.2958307 C29.4761129,41.0505007 29.8614796,41.7732083 30.2486222,42.4408694 C33.4096947,47.9188863 35.5052371,47.8052418 37.5048818,46.6492649 C39.5045265,45.4968393 40.6517472,43.7353505 37.4888989,38.2555579 C37.1035322,37.5861212 36.6666648,36.8918247 36.2013834,36.1922012 C36.9028573,36.6609844 37.5954519,37.0942539 38.2649599,37.4795795 C43.7417844,40.6456424 45.5016848,39.5003196 46.6560091,37.4991122 C47.8103333,35.4996804 47.9257657,33.4043611 42.4453895,30.2400739 C41.7776573,29.8529725 41.0530969,29.4676468 40.3001223,29.0965267 C41.1401152,29.1462462 41.9587974,29.176433 42.7330826,29.176433 C49.0516758,29.1817601 50.0017734,27.3101783 49.9999975,25 Z" id="Shape"></path>
            </g>
        </g>
    </g>
</svg>